<?xml version="1.0" encoding="UTF-8"?>
<svg width="132px" height="32px" viewBox="0 0 132 32" version="1.1" xmlns="http://www.w3.org/2000/svg" xmlns:xlink="http://www.w3.org/1999/xlink">
    <!-- Generator: Sketch 46.2 (44496) - http://www.bohemiancoding.com/sketch -->
    <title>Logo</title>
    <desc>Created with Sketch.</desc>
    <defs>
        <polygon id="path-1" points="10.2358371 11.3192928 10.2358371 0.0732830529 0.0494773232 0.0732830529 0.0494773232 11.3192928 10.2358371 11.3192928"></polygon>
        <polygon id="path-3" points="0.0591952023 0.026508683 13.5005758 0.026508683 13.5005758 26.8734449 0.0591952023 26.8734449"></polygon>
    </defs>
    <g id="Symbols" stroke="none" stroke-width="1" fill="none" fill-rule="evenodd">
        <g id="Logo">
            <g id="Page-1-Copy-2" transform="translate(4.000000, 2.000000)">
                <polygon id="Fill-1" fill="#192F73" points="34.1423744 10.5928697 34.152487 19.8750432 40.0156484 19.8688416 40.0178682 21.8279306 32.004811 21.8364425 31.9924787 10.5951801"></polygon>
                <g id="Group-26" transform="translate(0.000000, 0.095091)">
                    <path d="M51.6614042,21.7205582 L43.1270592,21.7295566 C43.1229896,17.9878195 43.1189199,14.2300313 43.1148502,10.4882942 L51.6490719,10.4792958 L51.651415,12.5348132 L45.2506871,12.5416227 L45.2535236,15.1268273 L51.4262266,15.1203826 L51.4283231,17.0957658 L45.2556201,17.1023322 L45.2583332,19.6396266 L51.6590611,19.632817 L51.6614042,21.7205582 Z" id="Fill-2" fill="#192F73"></path>
                    <path d="M60.0543096,12.8309079 L57.9422741,17.6186435 L62.1768276,17.6140228 L60.0543096,12.8309079 Z M63.0420641,19.5885548 L57.0812306,19.594878 L56.1063596,21.7158159 L53.7773984,21.7182478 L58.8790382,10.4716351 L61.2244015,10.4690815 L66.350706,21.7049935 L64.005466,21.7075471 L63.0420641,19.5885548 Z" id="Fill-4" fill="#192F73"></path>
                    <path d="M71.281617,19.6600188 L73.6268569,19.6574653 C76.216647,19.6547901 77.2404774,17.7912783 77.1895448,15.9604768 C77.1388589,14.2099309 76.0945569,12.4604794 73.6189642,12.463033 L71.2738476,12.4655866 L71.281617,19.6600188 Z M79.3232852,15.9740959 C79.3752043,18.8167266 77.61945,21.6930403 73.6290767,21.6972963 C72.2284936,21.6987554 70.5508029,21.7004578 69.1502197,21.7020386 L69.1380107,10.4607762 C70.5387172,10.4591954 72.2162846,10.4574931 73.6168677,10.4560339 C77.5257242,10.4517779 79.2713661,13.1961562 79.3232852,15.9740959 L79.3232852,15.9740959 Z" id="Fill-6" fill="#192F73"></path>
                    <path d="M84.4233712,19.7104826 L87.7133912,19.7070778 C88.5928099,19.706105 89.8466383,19.4156039 89.8454051,18.3556214 C89.8442952,17.3441571 88.5896035,16.815321 87.7101848,16.8162938 L84.4202881,16.8198202 L84.4233712,19.7104826 Z M84.4181916,14.9571596 L87.7082116,14.9537548 C89.0599587,14.9522956 89.4989898,14.3894117 89.4982499,13.7473665 C89.4977566,13.2333656 89.073401,12.366483 87.7052519,12.3679422 L84.4153552,12.3714686 L84.4181916,14.9571596 Z M91.6317436,13.6970244 C91.6327302,14.5639069 91.2102244,15.3995384 90.1521102,15.866602 C91.4880719,16.2666642 91.9781589,17.6632341 91.9790221,18.3697269 C91.9816119,20.8747975 90.0770063,21.6797859 87.7154877,21.6823395 C85.9075676,21.6841635 84.1160494,21.6861091 82.3082526,21.6881763 L82.2960436,10.4467923 C84.0874384,10.4449683 85.8953585,10.4430227 87.7032787,10.4410771 C89.9507232,10.4386451 91.6294005,11.4324776 91.6317436,13.6970244 L91.6317436,13.6970244 Z" id="Fill-8" fill="#192F73"></path>
                    <polygon id="Fill-10" fill="#192F73" points="95.1406996 21.6744842 95.1283672 10.4332218 97.2619843 10.431033 97.2743166 21.6721738"></polygon>
                    <path d="M103.077839,12.4001418 L103.081785,15.9974187 L106.355403,15.9940139 C107.723552,15.9924331 108.308845,15.0923539 108.307858,14.1932474 C108.306872,13.2937762 107.703451,12.3952778 106.35158,12.396737 L103.077839,12.4001418 Z M111.035894,21.6577521 L108.479031,21.6603057 L105.152384,17.9061655 L103.083882,17.9084759 L103.087951,21.6660209 L100.938179,21.6684529 L100.92597,10.4107745 C102.733767,10.4089505 104.541564,10.4232993 106.34936,10.4213537 C109.036699,10.4343648 110.455534,12.199381 110.457754,14.1425405 C110.459357,15.6841785 109.744575,17.2428404 107.578894,17.6784097 L111.035771,21.5130487 L111.035894,21.6577521 Z" id="Fill-12" fill="#192F73"></path>
                    <g id="Group-16" transform="translate(113.334148, 10.335954)">
                        <mask id="mask-2" fill="white">
                            <use xlink:href="#path-1"></use>
                        </mask>
                        <g id="Clip-15"></g>
                        <path d="M2.19296026,9.27727298 L4.5383235,9.27471939 C7.12799028,9.2720442 8.15194395,7.40841083 8.10101142,5.57760931 C8.05032552,3.82718503 7.0060235,2.07761195 4.53043081,2.08028714 L2.18519089,2.08271913 L2.19296026,9.27727298 Z M10.2347518,5.59135005 C10.2866709,8.4338591 8.53079325,11.3102944 4.54054332,11.3145504 C3.13996017,11.3160096 1.46226948,11.317712 0.0616863337,11.3192928 L0.0494773232,0.0779087762 C1.45006047,0.0764495826 3.12762784,0.0747471902 4.52833431,0.0732879966 C8.43706751,0.0690320154 10.1827094,2.81341031 10.2347518,5.59135005 L10.2347518,5.59135005 Z" id="Fill-14" fill="#192F73" mask="url(#mask-2)"></path>
                    </g>
                    <g id="Group-19" transform="translate(15.168771, 0.000000)">
                        <mask id="mask-4" fill="white">
                            <use xlink:href="#path-3"></use>
                        </mask>
                        <g id="Clip-18"></g>
                        <path d="M12.1728767,6.63747023 C12.1697936,6.63601104 12.0881536,6.63370065 12.0881536,6.63370065 L12.1292203,0.0610064508 C11.037932,0.0544400798 9.77584101,0.0467793136 6.45055052,0.0265938026 C3.12464342,0.00640829172 0.106058071,3.11339618 0.0855863966,6.39269051 L0.0675811892,9.27727298 C0.0675811892,9.27727298 0.0644981058,9.77291239 0.0591952023,10.6172991 L5.78583773,26.8734449 C11.6861195,23.8772342 12.0240255,16.9172457 12.0398108,14.3825049 L12.0712583,9.35011106 L13.5005758,7.94284047 C12.9843443,7.42750194 12.9119535,7.37533577 12.1728767,6.63747023" id="Fill-17" fill="#192F73" mask="url(#mask-4)"></path>
                    </g>
                    <path d="M0,9.00040316 C0.00345305346,10.0684113 0.126899715,11.0886307 0.351594837,12.0564409 L14.1672617,12.0585081 L13.1047079,9.00234875 L0,9.00040316 Z" id="Fill-20" fill="#FF231A"></path>
                    <path d="M0.943596189,13.9360524 C1.39520625,15.0550107 1.99702414,16.079243 2.72574175,16.9922117 L15.8834787,16.9944005 L14.8209248,13.9383628 L0.943596189,13.9360524 Z" id="Fill-22" fill="#FF231A"></path>
                    <path d="M4.59283242,18.8718719 C6.88307013,20.7288173 9.85405267,21.793907 13.102636,21.7905022 L17.5796432,21.8729467 L16.5369444,18.8740607 L4.59283242,18.8718719 Z" id="Fill-24" fill="#FF231A"></path>
                </g>
            </g>
        </g>
    </g>
</svg>